<svg xmlns="http://www.w3.org/2000/svg" viewBox="0 0 100 100" width="100" height="100">
  <path d="M20 75c0-22 10-38 30-44" fill="none" stroke="#49b5b0" stroke-width="4" stroke-linecap="round"/>
  <path d="M80 75c0-22-10-38-30-44" fill="none" stroke="#49b5b0" stroke-width="4" stroke-linecap="round"/>
  <path d="M26 70c5-16 13-30 24-36" fill="none" stroke="#49b5b0" stroke-width="3.5" stroke-linecap="round"/>
  <path d="M74 70c-5-16-13-30-24-36" fill="none" stroke="#49b5b0" stroke-width="3.5" stroke-linecap="round"/>
  <path d="M32 65c8-13 15-24 18-28" fill="none" stroke="#49b5b0" stroke-width="3" stroke-linecap="round"/>
  <path d="M68 65c-8-13-15-24-18-28" fill="none" stroke="#49b5b0" stroke-width="3" stroke-linecap="round"/>
  <path d="M50 20l5 14h15l-12 9 5 14-13-9-13 9 5-14-12-9h15z" fill="#d2010d"/>
  <line x1="42" y1="14" x2="39" y2="6" stroke="#e8830c" stroke-width="3" stroke-linecap="round"/>
  <line x1="50" y1="12" x2="50" y2="3" stroke="#e8830c" stroke-width="3" stroke-linecap="round"/>
  <line x1="58" y1="14" x2="61" y2="6" stroke="#e8830c" stroke-width="3" stroke-linecap="round"/>
</svg>
