<svg viewBox="0 0 104 103" xmlns="http://www.w3.org/2000/svg">
<path d="M9.865,69.973a8.6,8.6,0,0,0-2.3-7.481A11.128,11.128,0,0,0,.157,59S-.87,63.706,2.328,67.1A9.613,9.613,0,0,0,9.865,69.973Z" style="fill:#009ea8"></path>
<path d="M17.424,70a9.6,9.6,0,0,0,1.718-15,11.8,11.8,0,0,0-4.034,7.356A8.928,8.928,0,0,0,17.424,70Z" style="fill:#009ea8"></path>
<path d="M24.323,82A10.09,10.09,0,0,0,28,74.574,9.8,9.8,0,0,0,24.159,67,11.7,11.7,0,0,0,21,74.789,8.674,8.674,0,0,0,24.323,82Z" style="fill:#009ea8"></path>
<path d="M35.976,80.213A9.8,9.8,0,0,0,31.458,73a11.855,11.855,0,0,0-2.428,8.1A8.673,8.673,0,0,0,33,88,10.219,10.219,0,0,0,35.976,80.213Z" style="fill:#009ea8"></path>
<path d="M43.688,94a10.136,10.136,0,0,0,.7-8.384C42.665,81.105,37.828,80,37.828,80a11.786,11.786,0,0,0-.062,8.537A8.727,8.727,0,0,0,43.688,94Z" style="fill:#009ea8"></path>
<path d="M11.724,60a9.021,9.021,0,0,0,2.134-7.722A11.8,11.8,0,0,0,9.688,45a10.205,10.205,0,0,0-2.567,8.183A10.019,10.019,0,0,0,11.724,60Z" style="fill:#009ea8"></path>
<path d="M14,80.305a8.968,8.968,0,0,0-4.556-6.8A11.527,11.527,0,0,0,1,72.33s.4,5.054,4.615,7.45A9.922,9.922,0,0,0,14,80.305Z" style="fill:#009ea8"></path>
<path d="M21,88.183a8.856,8.856,0,0,0-5.75-5.7,10.721,10.721,0,0,0-8.25.78s1.454,4.929,5.948,6.338A9.28,9.28,0,0,0,21,88.183Z" style="fill:#009ea8"></path>
<path d="M30,93.3A8.669,8.669,0,0,0,22.786,90,11.729,11.729,0,0,0,15,93.181,9.793,9.793,0,0,0,22.59,97,10.033,10.033,0,0,0,30,93.3Z" style="fill:#009ea8"></path>
<path d="M33.385,96.1A11.8,11.8,0,0,0,26,100.078a10.045,10.045,0,0,0,8.055,2.84A10.018,10.018,0,0,0,41,98.48,8.917,8.917,0,0,0,33.385,96.1Z" style="fill:#009ea8"></path>
<path d="M13.382,62.093,11,62c-.006.257-.6,25.583,38.318,37L50,96.762C12.943,85.888,13.34,63.055,13.382,62.093Z" style="fill:#009ea8"></path>
<path d="M94.137,69.973a9.6,9.6,0,0,0,7.535-2.88c3.2-3.387,2.171-8.093,2.171-8.093a11.166,11.166,0,0,0-7.411,3.493A8.587,8.587,0,0,0,94.137,69.973Z" style="fill:#009ea8"></path>
<path d="M82.092,63.078A10.049,10.049,0,0,0,86.574,70a8.941,8.941,0,0,0,2.32-7.641A11.794,11.794,0,0,0,84.86,55,10.061,10.061,0,0,0,82.092,63.078Z" style="fill:#009ea8"></path>
<path d="M80.842,67A9.813,9.813,0,0,0,77,74.574,10.109,10.109,0,0,0,80.676,82,8.689,8.689,0,0,0,84,74.789,11.751,11.751,0,0,0,80.842,67Z" style="fill:#009ea8"></path>
<path d="M68.024,81.222A10.208,10.208,0,0,0,71,89a8.675,8.675,0,0,0,3.971-6.9A11.882,11.882,0,0,0,72.542,74,9.831,9.831,0,0,0,68.024,81.222Z" style="fill:#009ea8"></path>
<path d="M59.617,86.619a10.124,10.124,0,0,0,.7,8.381,8.727,8.727,0,0,0,5.921-5.46A11.775,11.775,0,0,0,66.169,81S61.342,82.108,59.617,86.619Z" style="fill:#009ea8"></path>
<path d="M92.274,60a10.029,10.029,0,0,0,4.605-6.819A10.2,10.2,0,0,0,94.309,45a11.774,11.774,0,0,0-4.166,7.276A9.017,9.017,0,0,0,92.274,60Z" style="fill:#009ea8"></path>
<path d="M94.556,73.513A8.958,8.958,0,0,0,90,80.3a9.917,9.917,0,0,0,8.385-.522c4.213-2.4,4.615-7.45,4.615-7.45A11.5,11.5,0,0,0,94.556,73.513Z" style="fill:#009ea8"></path>
<path d="M88.747,82.488A8.85,8.85,0,0,0,83,88.182a9.309,9.309,0,0,0,8.054,1.426C95.547,88.2,97,83.271,97,83.271A10.711,10.711,0,0,0,88.747,82.488Z" style="fill:#009ea8"></path>
<path d="M81.214,90A8.668,8.668,0,0,0,74,93.305,10.044,10.044,0,0,0,81.41,97,9.806,9.806,0,0,0,89,93.183,11.719,11.719,0,0,0,81.214,90Z" style="fill:#009ea8"></path>
<path d="M70.613,96.1A8.906,8.906,0,0,0,63,98.476a9.564,9.564,0,0,0,15,1.6A11.811,11.811,0,0,0,70.613,96.1Z" style="fill:#009ea8"></path>
<path d="M93,62l-2.384.093c.042.969.439,23.8-36.615,34.672L54.681,99C93.6,87.588,93.005,62.257,93,62Z" style="fill:#009ea8"></path>
<path d="M51.5,62.958,39.515,67.893a2,2,0,0,1-2.755-2l.99-12.923-8.4-9.873a2,2,0,0,1,1.052-3.24L43,36.8,49.8,25.766a2,2,0,0,1,3.406,0L60,36.8l12.6,3.052a2,2,0,0,1,1.052,3.24l-8.4,9.873.989,12.923a2,2,0,0,1-2.755,2Z" style="fill:#d2010d;fill-rule:evenodd"></path>
<path d="M45.225.635s.3.179,2.231-.465c.079-.031.159-.058.242-.082l.045-.014,0,0A2.387,2.387,0,0,1,50.715,2.1l1.326,10.688a2.39,2.39,0,1,1-4.744.587L45.988,2.823l-.019.028S45.847,1.134,45.225.635Z" style="fill:#ff6900;fill-rule:evenodd"></path>
<path d="M26,9.918s.347.006,1.7-1.519a2.165,2.165,0,0,1,.168-.191c.011-.012.021-.024.032-.035v.005a2.389,2.389,0,0,1,3.587.26l6.492,8.594a2.39,2.39,0,1,1-3.815,2.88l-6.408-8.481,0,.033S26.789,10.039,26,9.918Z" style="fill:#ff6900;fill-rule:evenodd"></path>
<path d="M94.1,38.668s-.246-.244-.1-2.277a2.393,2.393,0,0,0,.02-.254l0-.048,0,.005A2.219,2.219,0,0,0,94,35.779a2.389,2.389,0,0,0-2.67-2.074L80.648,35.046a2.391,2.391,0,0,0,.6,4.744l10.548-1.324-.023.025S93.463,38.187,94.1,38.668Z" style="fill:#ff6900;fill-rule:evenodd"></path>
<path d="M87.344,18.417s-.335-.088-1.223-1.923a2.424,2.424,0,0,0-.11-.23c-.006-.015-.014-.028-.02-.043l0,.006a2.237,2.237,0,0,0-.174-.265,2.389,2.389,0,0,0-3.349-.46l-8.583,6.5a2.39,2.39,0,1,0,2.888,3.81l8.473-6.42-.008.032S86.553,18.319,87.344,18.417Z" style="fill:#ff6900;fill-rule:evenodd"></path>
<path d="M71.367,4.257s-.334.091-2.021-1.054c-.066-.051-.137-.1-.21-.144L69.1,3.032v0a2.393,2.393,0,0,0-3.413,1.134L61.5,14.1a2.39,2.39,0,1,0,4.406,1.855l4.129-9.8.009.032S70.632,4.569,71.367,4.257Z" style="fill:#ff6900;fill-rule:evenodd"></path>
</svg>